<svg width="720" height="360" viewBox="0 0 720 360" fill="none" xmlns="http://www.w3.org/2000/svg">
<rect width="720" height="360" fill="white"/>
<g filter="url(#filter0_d_7_21)">
<rect x="155" y="93" width="410" height="174" rx="15" fill="white" shape-rendering="crispEdges"/>
<mask id="mask0_7_21" style="mask-type:alpha" maskUnits="userSpaceOnUse" x="173" y="118" width="124" height="124">
<rect x="173" y="118" width="124" height="124" fill="#D9D9D9"/>
</mask>
<g mask="url(#mask0_7_21)">
<path d="M183.333 205.833V133.5C183.333 132.036 183.829 130.808 184.821 129.816C185.81 128.828 187.036 128.333 188.5 128.333H255.667C257.131 128.333 258.357 128.828 259.345 129.816C260.337 130.808 260.833 132.036 260.833 133.5V180C260.833 181.464 260.337 182.69 259.345 183.679C258.357 184.671 257.131 185.167 255.667 185.167H204L183.333 205.833ZM209.167 211C207.703 211 206.475 210.504 205.483 209.512C204.494 208.523 204 207.297 204 205.833V195.5H271.167V149H281.5C282.964 149 284.19 149.494 285.179 150.483C286.171 151.475 286.667 152.703 286.667 154.167V231.667L266 211H209.167ZM250.5 138.667H193.667V180.904L199.738 174.833H250.5V138.667Z" fill="#1C1B1F"/>
</g>
<path d="M333.635 192H338.798L344.177 175.249C344.31 174.851 344.415 174.48 344.492 174.137C344.581 173.794 344.658 173.473 344.725 173.174H344.824C344.891 173.473 344.963 173.794 345.04 174.137C345.129 174.48 345.234 174.856 345.355 175.266L350.851 192H356.445L347.995 167.762H342.085L333.635 192ZM338.449 186.92H351.365L350.336 183.102H339.445L338.449 186.92ZM357.906 192H363.003L363.053 190.141H363.119C363.529 190.805 364.171 191.336 365.045 191.734C365.919 192.133 366.904 192.332 368 192.332C370.092 192.332 371.78 191.546 373.063 189.975C374.347 188.392 374.989 186.383 374.989 183.948V183.417C374.989 180.982 374.358 178.995 373.097 177.457C371.835 175.919 370.153 175.149 368.05 175.149C366.954 175.149 366.002 175.349 365.194 175.747C364.386 176.134 363.711 176.677 363.169 177.374V167.147H357.906V192ZM363.169 186.339V181.192C363.412 180.606 363.8 180.091 364.331 179.648C364.873 179.206 365.543 178.984 366.34 178.984C367.469 178.984 368.299 179.388 368.83 180.196C369.361 180.993 369.627 182.045 369.627 183.351V184.064C369.627 185.37 369.361 186.444 368.83 187.285C368.299 188.126 367.496 188.547 366.423 188.547C365.571 188.547 364.873 188.326 364.331 187.883C363.8 187.44 363.412 186.925 363.169 186.339ZM376.882 184.015C376.882 186.571 377.695 188.619 379.322 190.157C380.96 191.685 383.107 192.448 385.764 192.448C388.42 192.448 390.562 191.685 392.188 190.157C393.826 188.619 394.646 186.571 394.646 184.015V183.467C394.646 180.91 393.826 178.868 392.188 177.341C390.562 175.802 388.42 175.033 385.764 175.033C383.107 175.033 380.96 175.802 379.322 177.341C377.695 178.868 376.882 180.91 376.882 183.467V184.015ZM382.244 183.234C382.244 181.862 382.549 180.799 383.157 180.047C383.777 179.283 384.646 178.901 385.764 178.901C386.882 178.901 387.745 179.283 388.354 180.047C388.973 180.799 389.283 181.862 389.283 183.234V184.23C389.283 185.614 388.979 186.693 388.37 187.468C387.772 188.231 386.904 188.613 385.764 188.613C384.635 188.613 383.766 188.231 383.157 187.468C382.549 186.693 382.244 185.614 382.244 184.23V183.234ZM397.235 185.94C397.235 188.243 397.761 189.892 398.812 190.888C399.864 191.873 401.225 192.365 402.896 192.365C404.07 192.365 405.093 192.149 405.968 191.718C406.842 191.275 407.512 190.688 407.977 189.958H408.026L408.093 192H413.206V175.531H407.927V186.322C407.65 186.931 407.252 187.44 406.731 187.85C406.211 188.248 405.614 188.447 404.938 188.447C404.186 188.447 403.594 188.243 403.162 187.833C402.742 187.412 402.531 186.676 402.531 185.625V175.531H397.235V185.94ZM415.065 179.35H426.072V175.531H415.065V179.35ZM417.572 186.986C417.572 188.879 418.037 190.257 418.967 191.12C419.908 191.983 421.202 192.415 422.852 192.415C423.604 192.415 424.252 192.365 424.794 192.266C425.347 192.166 425.768 192.061 426.056 191.95V188.298C425.812 188.386 425.563 188.458 425.309 188.514C425.054 188.558 424.788 188.58 424.512 188.58C423.936 188.58 423.505 188.431 423.217 188.132C422.929 187.822 422.785 187.202 422.785 186.272V170.966H417.655V176.527L417.572 176.876V186.986ZM436.896 192H442.342V183.284H446.127C448.661 183.284 450.687 182.576 452.203 181.159C453.719 179.743 454.478 177.839 454.478 175.448C454.478 173.102 453.736 171.248 452.253 169.887C450.781 168.514 448.75 167.828 446.16 167.828H436.896V192ZM442.342 179.516V171.796H445.43C446.736 171.796 447.654 172.145 448.186 172.842C448.728 173.539 448.999 174.469 448.999 175.631C448.999 176.793 448.728 177.734 448.186 178.453C447.654 179.161 446.736 179.516 445.43 179.516H442.342ZM449.53 192H455.54L449.713 180.329L444.434 181.143L449.53 192ZM456.536 183.998C456.536 186.577 457.322 188.63 458.894 190.157C460.465 191.685 462.651 192.448 465.451 192.448C467.421 192.448 469.043 192.089 470.315 191.369C471.588 190.639 472.49 189.676 473.021 188.48L468.938 186.704C468.583 187.257 468.113 187.728 467.526 188.115C466.94 188.492 466.226 188.68 465.385 188.68C464.212 188.68 463.321 188.281 462.712 187.484C462.103 186.676 461.799 185.57 461.799 184.164V183.052C461.799 181.779 462.081 180.744 462.646 179.947C463.21 179.15 464.035 178.752 465.119 178.752C466.093 178.752 466.829 179.034 467.327 179.599C467.825 180.163 468.074 180.86 468.074 181.69V181.939H459.724V184.878H473.221V183.234C473.221 180.689 472.512 178.691 471.096 177.241C469.679 175.78 467.698 175.05 465.152 175.05C462.585 175.05 460.504 175.819 458.91 177.357C457.327 178.885 456.536 180.921 456.536 183.467V183.998ZM475.512 180.628C475.512 184.579 476.452 187.534 478.334 189.493C480.215 191.441 482.728 192.415 485.871 192.415C488.837 192.415 491.139 191.674 492.777 190.19C494.426 188.696 495.284 186.726 495.351 184.28V183.218H490.021V184.164C489.977 185.548 489.623 186.61 488.959 187.352C488.295 188.093 487.299 188.464 485.971 188.464C484.488 188.464 483.32 187.905 482.468 186.787C481.627 185.669 481.206 183.976 481.206 181.707V178.138C481.206 175.758 481.627 174.043 482.468 172.991C483.32 171.929 484.465 171.397 485.904 171.397C487.288 171.397 488.317 171.752 488.992 172.46C489.678 173.157 490.021 174.159 490.021 175.465V176.66H495.351V175.747C495.351 173.146 494.509 171.11 492.827 169.638C491.145 168.155 488.832 167.413 485.888 167.413C482.8 167.413 480.299 168.376 478.384 170.302C476.469 172.228 475.512 175.194 475.512 179.2V180.628ZM497.957 192H503.236V181.325C503.502 180.639 503.878 180.102 504.365 179.715C504.863 179.327 505.45 179.134 506.125 179.134C506.889 179.134 507.492 179.35 507.935 179.781C508.377 180.213 508.599 180.932 508.599 181.939V192H513.878V181.309C513.878 179.139 513.363 177.573 512.334 176.61C511.316 175.636 510.004 175.149 508.399 175.149C507.127 175.149 506.059 175.393 505.195 175.88C504.343 176.356 503.69 176.97 503.236 177.723V167.147H497.957V192ZM516.584 187.202C516.584 188.884 517.115 190.152 518.178 191.004C519.24 191.856 520.613 192.282 522.295 192.282C523.712 192.282 524.89 192.033 525.831 191.535C526.772 191.026 527.419 190.456 527.773 189.825C527.818 190.224 527.89 190.622 527.989 191.021C528.089 191.408 528.216 191.734 528.371 192H533.567V191.751C533.346 191.319 533.174 190.799 533.053 190.19C532.931 189.582 532.87 188.94 532.87 188.265V180.86C532.87 178.857 532.234 177.396 530.961 176.478C529.688 175.548 527.851 175.083 525.449 175.083C523.07 175.083 521.16 175.564 519.722 176.527C518.283 177.49 517.563 178.735 517.563 180.263V180.578L522.577 180.595V180.296C522.577 179.72 522.782 179.25 523.191 178.885C523.601 178.52 524.248 178.337 525.134 178.337C526.041 178.337 526.678 178.553 527.043 178.984C527.419 179.416 527.607 180.003 527.607 180.744V181.724H523.972C521.802 181.724 520.026 182.2 518.643 183.151C517.27 184.092 516.584 185.442 516.584 187.202ZM521.847 186.771C521.847 186.04 522.118 185.498 522.66 185.144C523.214 184.789 524.055 184.612 525.184 184.612H527.607V186.04C527.607 186.848 527.281 187.551 526.628 188.148C525.986 188.746 525.217 189.045 524.32 189.045C523.479 189.045 522.854 188.846 522.444 188.447C522.046 188.038 521.847 187.479 521.847 186.771ZM534.796 179.35H545.803V175.531H534.796V179.35ZM537.303 186.986C537.303 188.879 537.768 190.257 538.697 191.12C539.638 191.983 540.933 192.415 542.582 192.415C543.335 192.415 543.982 192.365 544.524 192.266C545.078 192.166 545.498 192.061 545.786 191.95V188.298C545.543 188.386 545.294 188.458 545.039 188.514C544.785 188.558 544.519 188.58 544.242 188.58C543.667 188.58 543.235 188.431 542.947 188.132C542.66 187.822 542.516 187.202 542.516 186.272V170.966H537.386V176.527L537.303 176.876V186.986Z" fill="black"/>
<rect x="156" y="94" width="408" height="172" rx="14" stroke="black" stroke-width="2" shape-rendering="crispEdges"/>
</g>
<defs>
<filter id="filter0_d_7_21" x="155" y="93" width="414" height="178" filterUnits="userSpaceOnUse" color-interpolation-filters="sRGB">
<feFlood flood-opacity="0" result="BackgroundImageFix"/>
<feColorMatrix in="SourceAlpha" type="matrix" values="0 0 0 0 0 0 0 0 0 0 0 0 0 0 0 0 0 0 127 0" result="hardAlpha"/>
<feOffset dx="4" dy="4"/>
<feComposite in2="hardAlpha" operator="out"/>
<feColorMatrix type="matrix" values="0 0 0 0 0 0 0 0 0 0 0 0 0 0 0 0 0 0 1 0"/>
<feBlend mode="normal" in2="BackgroundImageFix" result="effect1_dropShadow_7_21"/>
<feBlend mode="normal" in="SourceGraphic" in2="effect1_dropShadow_7_21" result="shape"/>
</filter>
</defs>
</svg>
