<svg width="720" height="360" viewBox="0 0 720 360" fill="none" xmlns="http://www.w3.org/2000/svg">
<rect width="720" height="360" fill="white"/>
<g filter="url(#filter0_d_2_11)">
<rect x="103" y="93" width="514" height="174" rx="15" fill="white" shape-rendering="crispEdges"/>
<mask id="mask0_2_11" style="mask-type:alpha" maskUnits="userSpaceOnUse" x="121" y="118" width="124" height="124">
<rect x="121" y="118" width="124" height="124" fill="#D9D9D9"/>
</mask>
<g mask="url(#mask0_2_11)">
<path d="M131.333 205.833V133.5C131.333 132.036 131.829 130.808 132.821 129.816C133.81 128.828 135.036 128.333 136.5 128.333H203.667C205.131 128.333 206.357 128.828 207.345 129.816C208.337 130.808 208.833 132.036 208.833 133.5V180C208.833 181.464 208.337 182.69 207.345 183.679C206.357 184.671 205.131 185.167 203.667 185.167H152L131.333 205.833ZM157.167 211C155.703 211 154.475 210.504 153.483 209.512C152.494 208.523 152 207.297 152 205.833V195.5H219.167V149H229.5C230.964 149 232.19 149.494 233.179 150.483C234.171 151.475 234.667 152.703 234.667 154.167V231.667L214 211H157.167ZM198.5 138.667H141.667V180.904L147.738 174.833H198.5V138.667Z" fill="#1C1B1F"/>
</g>
<path d="M282.266 172.062H289.072V192H294.567V172.062H301.357V167.828H282.266V172.062ZM303.416 192H308.695V181.325C308.961 180.639 309.337 180.102 309.824 179.715C310.322 179.327 310.909 179.134 311.584 179.134C312.348 179.134 312.951 179.35 313.394 179.781C313.836 180.213 314.058 180.932 314.058 181.939V192H319.337V181.309C319.337 179.139 318.822 177.573 317.793 176.61C316.775 175.636 315.463 175.149 313.858 175.149C312.586 175.149 311.518 175.393 310.654 175.88C309.802 176.356 309.149 176.97 308.695 177.723V167.147H303.416V192ZM322.906 192H328.235V175.531H322.906V192ZM322.541 170.435C322.541 171.209 322.801 171.868 323.321 172.41C323.841 172.941 324.583 173.207 325.546 173.207C326.52 173.207 327.272 172.941 327.804 172.41C328.335 171.868 328.601 171.209 328.601 170.435C328.601 169.649 328.34 168.996 327.82 168.476C327.3 167.944 326.553 167.679 325.579 167.679C324.605 167.679 323.853 167.944 323.321 168.476C322.801 169.007 322.541 169.66 322.541 170.435ZM331.074 186.737V186.986C331.096 188.735 331.783 190.085 333.133 191.037C334.494 191.978 336.414 192.448 338.894 192.448C341.417 192.448 343.337 191.978 344.654 191.037C345.971 190.085 346.63 188.724 346.63 186.953C346.63 185.525 346.148 184.408 345.186 183.6C344.223 182.792 342.69 182.188 340.587 181.79C338.916 181.469 337.826 181.176 337.316 180.91C336.818 180.633 336.569 180.274 336.569 179.831C336.569 179.355 336.746 178.99 337.101 178.735C337.455 178.481 338.03 178.354 338.827 178.354C339.668 178.354 340.305 178.52 340.736 178.852C341.168 179.173 341.384 179.66 341.384 180.312V180.611H346.265V180.346C346.276 178.674 345.617 177.374 344.289 176.444C342.961 175.504 341.168 175.033 338.91 175.033C336.619 175.033 334.815 175.487 333.498 176.395C332.181 177.291 331.522 178.553 331.522 180.18C331.522 181.585 331.987 182.714 332.917 183.566C333.858 184.408 335.352 185.027 337.399 185.426C339.049 185.747 340.122 186.046 340.62 186.322C341.129 186.588 341.384 186.986 341.384 187.518C341.384 188.06 341.174 188.48 340.753 188.779C340.332 189.067 339.69 189.211 338.827 189.211C337.953 189.211 337.256 189.05 336.735 188.729C336.226 188.397 335.972 187.844 335.972 187.069V186.771L331.074 186.737ZM361.737 192.066H367.448L371.449 176.229C371.516 175.952 371.571 175.681 371.615 175.415C371.671 175.138 371.715 174.834 371.748 174.502H371.864C371.897 174.834 371.936 175.138 371.98 175.415C372.036 175.681 372.097 175.952 372.163 176.229L376.164 192.066H381.892L387.52 167.828H382.688L379.302 183.649C379.257 183.937 379.213 184.192 379.169 184.413C379.136 184.634 379.103 184.917 379.069 185.26H378.953C378.909 184.928 378.87 184.651 378.837 184.43C378.815 184.197 378.765 183.937 378.688 183.649L374.77 167.828H369.324L365.522 183.666C365.456 183.954 365.401 184.208 365.356 184.43C365.323 184.651 365.29 184.928 365.257 185.26H365.141C365.107 184.928 365.074 184.651 365.041 184.43C365.008 184.208 364.958 183.954 364.892 183.666L361.372 167.828H356.043L361.737 192.066ZM388.034 183.998C388.034 186.577 388.82 188.63 390.392 190.157C391.963 191.685 394.149 192.448 396.949 192.448C398.919 192.448 400.541 192.089 401.813 191.369C403.086 190.639 403.988 189.676 404.52 188.48L400.436 186.704C400.081 187.257 399.611 187.728 399.024 188.115C398.438 188.492 397.724 188.68 396.883 188.68C395.71 188.68 394.819 188.281 394.21 187.484C393.601 186.676 393.297 185.57 393.297 184.164V183.052C393.297 181.779 393.579 180.744 394.144 179.947C394.708 179.15 395.533 178.752 396.617 178.752C397.591 178.752 398.327 179.034 398.825 179.599C399.323 180.163 399.572 180.86 399.572 181.69V181.939H391.222V184.878H404.719V183.234C404.719 180.689 404.01 178.691 402.594 177.241C401.177 175.78 399.196 175.05 396.65 175.05C394.083 175.05 392.002 175.819 390.408 177.357C388.826 178.885 388.034 180.921 388.034 183.467V183.998ZM406.495 183.998C406.495 186.577 407.281 188.63 408.853 190.157C410.424 191.685 412.61 192.448 415.41 192.448C417.38 192.448 419.002 192.089 420.274 191.369C421.547 190.639 422.449 189.676 422.98 188.48L418.896 186.704C418.542 187.257 418.072 187.728 417.485 188.115C416.899 188.492 416.185 188.68 415.344 188.68C414.171 188.68 413.28 188.281 412.671 187.484C412.062 186.676 411.758 185.57 411.758 184.164V183.052C411.758 181.779 412.04 180.744 412.604 179.947C413.169 179.15 413.993 178.752 415.078 178.752C416.052 178.752 416.788 179.034 417.286 179.599C417.784 180.163 418.033 180.86 418.033 181.69V181.939H409.683V184.878H423.18V183.234C423.18 180.689 422.471 178.691 421.055 177.241C419.638 175.78 417.657 175.05 415.111 175.05C412.544 175.05 410.463 175.819 408.869 177.357C407.286 178.885 406.495 180.921 406.495 183.467V183.998ZM425.803 192H431.082V187.235L442.238 175.531H436.312L431.082 181.275V167.131H425.803V192ZM436.81 192H443.019L434.602 180.595L431.298 184.264L436.81 192ZM452.664 192H457.993V175.531H452.664V192ZM452.299 170.435C452.299 171.209 452.559 171.868 453.079 172.41C453.599 172.941 454.341 173.207 455.304 173.207C456.278 173.207 457.03 172.941 457.562 172.41C458.093 171.868 458.358 171.209 458.358 170.435C458.358 169.649 458.098 168.996 457.578 168.476C457.058 167.944 456.311 167.679 455.337 167.679C454.363 167.679 453.61 167.944 453.079 168.476C452.559 169.007 452.299 169.66 452.299 170.435ZM461.629 192H466.908V181.242C467.185 180.589 467.589 180.075 468.12 179.698C468.662 179.322 469.255 179.134 469.896 179.134C470.671 179.134 471.269 179.339 471.689 179.748C472.11 180.158 472.32 180.855 472.32 181.84V192H477.6V181.441C477.6 179.15 477.068 177.529 476.006 176.577C474.943 175.625 473.565 175.149 471.872 175.149C470.71 175.149 469.692 175.376 468.817 175.83C467.943 176.273 467.296 176.848 466.875 177.557H466.809L466.742 175.531H461.629V192ZM489.486 192H494.932V183.284H498.717C501.251 183.284 503.277 182.576 504.793 181.159C506.309 179.743 507.067 177.839 507.067 175.448C507.067 173.102 506.326 171.248 504.843 169.887C503.371 168.514 501.34 167.828 498.75 167.828H489.486V192ZM494.932 179.516V171.796H498.02C499.326 171.796 500.244 172.145 500.775 172.842C501.318 173.539 501.589 174.469 501.589 175.631C501.589 176.793 501.318 177.734 500.775 178.453C500.244 179.161 499.326 179.516 498.02 179.516H494.932ZM502.12 192H508.13L502.303 180.329L497.023 181.143L502.12 192ZM509.126 183.998C509.126 186.577 509.912 188.63 511.483 190.157C513.055 191.685 515.241 192.448 518.041 192.448C520.011 192.448 521.632 192.089 522.905 191.369C524.178 190.639 525.08 189.676 525.611 188.48L521.527 186.704C521.173 187.257 520.703 187.728 520.116 188.115C519.53 188.492 518.816 188.68 517.975 188.68C516.801 188.68 515.91 188.281 515.302 187.484C514.693 186.676 514.389 185.57 514.389 184.164V183.052C514.389 181.779 514.671 180.744 515.235 179.947C515.8 179.15 516.624 178.752 517.709 178.752C518.683 178.752 519.419 179.034 519.917 179.599C520.415 180.163 520.664 180.86 520.664 181.69V181.939H512.313V184.878H525.811V183.234C525.811 180.689 525.102 178.691 523.686 177.241C522.269 175.78 520.288 175.05 517.742 175.05C515.174 175.05 513.094 175.819 511.5 177.357C509.917 178.885 509.126 180.921 509.126 183.467V183.998ZM528.102 180.628C528.102 184.579 529.042 187.534 530.924 189.493C532.805 191.441 535.318 192.415 538.461 192.415C541.427 192.415 543.729 191.674 545.367 190.19C547.016 188.696 547.874 186.726 547.94 184.28V183.218H542.611V184.164C542.567 185.548 542.213 186.61 541.549 187.352C540.885 188.093 539.889 188.464 538.561 188.464C537.077 188.464 535.91 187.905 535.058 186.787C534.216 185.669 533.796 183.976 533.796 181.707V178.138C533.796 175.758 534.216 174.043 535.058 172.991C535.91 171.929 537.055 171.397 538.494 171.397C539.878 171.397 540.907 171.752 541.582 172.46C542.268 173.157 542.611 174.159 542.611 175.465V176.66H547.94V175.747C547.94 173.146 547.099 171.11 545.417 169.638C543.735 168.155 541.422 167.413 538.478 167.413C535.39 167.413 532.888 168.376 530.974 170.302C529.059 172.228 528.102 175.194 528.102 179.2V180.628ZM550.547 192H555.826V181.325C556.092 180.639 556.468 180.102 556.955 179.715C557.453 179.327 558.04 179.134 558.715 179.134C559.479 179.134 560.082 179.35 560.524 179.781C560.967 180.213 561.188 180.932 561.188 181.939V192H566.468V181.309C566.468 179.139 565.953 177.573 564.924 176.61C563.906 175.636 562.594 175.149 560.989 175.149C559.716 175.149 558.648 175.393 557.785 175.88C556.933 176.356 556.28 176.97 555.826 177.723V167.147H550.547V192ZM569.174 187.202C569.174 188.884 569.705 190.152 570.768 191.004C571.83 191.856 573.202 192.282 574.885 192.282C576.301 192.282 577.48 192.033 578.421 191.535C579.362 191.026 580.009 190.456 580.363 189.825C580.408 190.224 580.479 190.622 580.579 191.021C580.679 191.408 580.806 191.734 580.961 192H586.157V191.751C585.936 191.319 585.764 190.799 585.643 190.19C585.521 189.582 585.46 188.94 585.46 188.265V180.86C585.46 178.857 584.824 177.396 583.551 176.478C582.278 175.548 580.441 175.083 578.039 175.083C575.66 175.083 573.75 175.564 572.312 176.527C570.873 177.49 570.153 178.735 570.153 180.263V180.578L575.167 180.595V180.296C575.167 179.72 575.372 179.25 575.781 178.885C576.191 178.52 576.838 178.337 577.724 178.337C578.631 178.337 579.268 178.553 579.633 178.984C580.009 179.416 580.197 180.003 580.197 180.744V181.724H576.562C574.392 181.724 572.616 182.2 571.232 183.151C569.86 184.092 569.174 185.442 569.174 187.202ZM574.437 186.771C574.437 186.04 574.708 185.498 575.25 185.144C575.803 184.789 576.645 184.612 577.773 184.612H580.197V186.04C580.197 186.848 579.871 187.551 579.218 188.148C578.576 188.746 577.807 189.045 576.91 189.045C576.069 189.045 575.444 188.846 575.034 188.447C574.636 188.038 574.437 187.479 574.437 186.771ZM587.386 179.35H598.393V175.531H587.386V179.35ZM589.893 186.986C589.893 188.879 590.357 190.257 591.287 191.12C592.228 191.983 593.523 192.415 595.172 192.415C595.924 192.415 596.572 192.365 597.114 192.266C597.668 192.166 598.088 192.061 598.376 191.95V188.298C598.132 188.386 597.883 188.458 597.629 188.514C597.374 188.558 597.109 188.58 596.832 188.58C596.257 188.58 595.825 188.431 595.537 188.132C595.249 187.822 595.105 187.202 595.105 186.272V170.966H589.976V176.527L589.893 176.876V186.986Z" fill="black"/>
<rect x="104" y="94" width="512" height="172" rx="14" stroke="black" stroke-width="2" shape-rendering="crispEdges"/>
</g>
<defs>
<filter id="filter0_d_2_11" x="103" y="93" width="518" height="178" filterUnits="userSpaceOnUse" color-interpolation-filters="sRGB">
<feFlood flood-opacity="0" result="BackgroundImageFix"/>
<feColorMatrix in="SourceAlpha" type="matrix" values="0 0 0 0 0 0 0 0 0 0 0 0 0 0 0 0 0 0 127 0" result="hardAlpha"/>
<feOffset dx="4" dy="4"/>
<feComposite in2="hardAlpha" operator="out"/>
<feColorMatrix type="matrix" values="0 0 0 0 0 0 0 0 0 0 0 0 0 0 0 0 0 0 1 0"/>
<feBlend mode="normal" in2="BackgroundImageFix" result="effect1_dropShadow_2_11"/>
<feBlend mode="normal" in="SourceGraphic" in2="effect1_dropShadow_2_11" result="shape"/>
</filter>
</defs>
</svg>
